<?xml version="1.0" encoding="UTF-8"?>
<svg version="1.1" xmlns="http://www.w3.org/2000/svg" width="500" height="500">
<path d="M0 0 C165 0 330 0 500 0 C500 165 500 330 500 500 C335 500 170 500 0 500 C0 335 0 170 0 0 Z " fill="#FEFEFE" transform="translate(0,0)"/>
<path d="M0 0 C2.69457967 2.69457967 3.68296619 5.85381164 5.0390625 9.34375 C5.32478119 10.06864624 5.61049988 10.79354248 5.90487671 11.54040527 C6.50745919 13.07266228 7.10746263 14.60593566 7.70507812 16.14013672 C8.62234606 18.49319189 9.54879562 20.84247366 10.4765625 23.19140625 C11.0604448 24.67947222 11.64379626 26.1677466 12.2265625 27.65625 C12.50464752 28.36148804 12.78273254 29.06672607 13.06924438 29.79333496 C15 34.76888215 15 34.76888215 15 37 C15.71567139 37.2582959 16.43134277 37.5165918 17.16870117 37.78271484 C20.16732561 39.07193977 22.6158863 40.62382797 25.30078125 42.4765625 C26.27724609 43.146875 27.25371094 43.8171875 28.25976562 44.5078125 C29.26716797 45.20648438 30.27457031 45.90515625 31.3125 46.625 C32.33923828 47.33140625 33.36597656 48.0378125 34.42382812 48.765625 C36.95223556 50.50611012 39.47746624 52.25101786 42 54 C40.16307611 58.00374431 37.50882084 60.71957934 34.375 63.75 C33.859375 64.25660156 33.34375 64.76320313 32.8125 65.28515625 C31.54616661 66.52803902 30.2736856 67.76465276 29 69 C30.94382278 75.07044234 33.13195824 80.98097973 35.57421875 86.8671875 C36.24816859 88.51036675 36.92199318 90.15359738 37.59570312 91.796875 C38.64725985 94.35203186 39.70050919 96.90646934 40.75610352 99.45996094 C41.78332493 101.94804049 42.80414344 104.43867139 43.82421875 106.9296875 C44.14291428 107.69529999 44.4616098 108.46091248 44.78996277 109.24972534 C47 114.66015625 47 114.66015625 47 118 C41.39191219 117.34958777 36.48855662 115.45641168 31.26171875 113.4375 C30.34034622 113.0861499 29.41897369 112.7347998 28.46968079 112.37280273 C26.53142241 111.63237889 24.59419872 110.88924142 22.65795898 110.14355469 C19.68260058 108.99811384 16.70392017 107.8616782 13.72460938 106.7265625 C11.84094511 106.00573264 9.95747458 105.28439628 8.07421875 104.5625 C7.17950363 104.22081787 6.28478851 103.87913574 5.36296082 103.52709961 C4.54153091 103.2100708 3.72010101 102.89304199 2.8737793 102.56640625 C2.14797165 102.28740479 1.422164 102.00840332 0.67436218 101.72094727 C-1 101 -1 101 -2 100 C-2.03515835 96.89346647 -2.00424712 93.81142211 -1.92993164 90.70678711 C-1.91057053 89.73128403 -1.89120941 88.75578094 -1.8712616 87.75071716 C-1.80572314 84.50947299 -1.73295192 81.26843241 -1.66015625 78.02734375 C-1.61344323 75.78675745 -1.56717885 73.54616175 -1.52134705 71.30555725 C-1.3992392 65.39531456 -1.2710093 59.48521969 -1.14154053 53.57513428 C-1.01061255 47.54951536 -0.88542448 41.52377757 -0.75976562 35.49804688 C-0.51215512 23.66524051 -0.25808245 11.83258226 0 0 Z " fill="#07068B" transform="translate(426,191)"/>
<path d="M0 0 C4.95 0 9.9 0 15 0 C16.67304394 4.73201884 18.34538486 9.46428532 20.01708984 14.19677734 C20.58525846 15.80491767 21.1536153 17.41299151 21.72216797 19.02099609 C22.54184295 21.33934126 23.36082895 23.65792886 24.1796875 25.9765625 C24.43185028 26.68930328 24.68401306 27.40204407 24.94381714 28.13638306 C26.33519916 32.0784862 27.69099423 36.02953022 29 40 C33.00179465 29.55592229 36.76254095 19.04359527 40.37109375 8.45678711 C40.86222656 7.02604858 40.86222656 7.02604858 41.36328125 5.56640625 C41.65501221 4.70990479 41.94674316 3.85340332 42.24731445 2.97094727 C43 1 43 1 44 0 C48.62 0 53.24 0 58 0 C58 18.48 58 36.96 58 56 C54.37 56 50.74 56 47 56 C46.505 38.675 46.505 38.675 46 21 C42.04 32.55 38.08 44.1 34 56 C30.7 56 27.4 56 24 56 C20.04 44.45 16.08 32.9 12 21 C11.67 32.55 11.34 44.1 11 56 C7.37 56 3.74 56 0 56 C0 37.52 0 19.04 0 0 Z " fill="#0D0D0D" transform="translate(182,236)"/>
<path d="M0 0 C4.29 0 8.58 0 13 0 C16.30762398 3.55641344 18.11547933 6.02372593 20.3125 10.1875 C20.85455078 11.12787109 21.39660156 12.06824219 21.95507812 13.03710938 C23.66535543 16.00843921 25.33208793 19.00468386 27 22 C29.64 26.29 32.28 30.58 35 35 C35.33 23.45 35.66 11.9 36 0 C39.63 0 43.26 0 47 0 C47 18.48 47 36.96 47 56 C43.04 56 39.08 56 35 56 C32.12097438 52.81413945 30.68718073 50.73449772 28.875 47 C27.89002877 45.16818974 26.90301706 43.33747532 25.9140625 41.5078125 C25.43356445 40.58516602 24.95306641 39.66251953 24.45800781 38.71191406 C22.26385608 34.63076244 19.76734355 30.76206126 17.25 26.875 C13 20.28614852 13 20.28614852 13 18 C12.34 18 11.68 18 11 18 C11 30.54 11 43.08 11 56 C7.37 56 3.74 56 0 56 C0 37.52 0 19.04 0 0 Z " fill="#0F0C91" transform="translate(67,236)"/>
<path d="M0 0 C12.54 0 25.08 0 38 0 C38 3.3 38 6.6 38 10 C29.42 10 20.84 10 12 10 C12 13.96 12 17.92 12 22 C19.26 22 26.52 22 34 22 C34 25.3 34 28.6 34 32 C26.74 32 19.48 32 12 32 C12 36.95 12 41.9 12 47 C20.58 47 29.16 47 38 47 C38 49.97 38 52.94 38 56 C25.46 56 12.92 56 0 56 C0 37.52 0 19.04 0 0 Z " fill="#121212" transform="translate(313,236)"/>
<path d="M0 0 C12.21 0 24.42 0 37 0 C37 3.3 37 6.6 37 10 C28.42 10 19.84 10 11 10 C11 14.29 11 18.58 11 23 C18.26 23 25.52 23 33 23 C33 25.64 33 28.28 33 31 C25.74 31 18.48 31 11 31 C11 36.28 11 41.56 11 47 C19.58 47 28.16 47 37 47 C37 49.97 37 52.94 37 56 C24.79 56 12.58 56 0 56 C0 37.52 0 19.04 0 0 Z " fill="#050505" transform="translate(260,236)"/>
<path d="M0 0 C2.43805867 2.1901237 3.67640454 4.11955972 4.90112305 7.1484375 C5.24124924 7.97939941 5.58137543 8.81036133 5.93180847 9.66650391 C6.28817886 10.56030762 6.64454926 11.45411133 7.01171875 12.375 C7.57135063 13.75631104 7.57135063 13.75631104 8.14228821 15.16552734 C8.9283803 17.11081863 9.71069624 19.05763952 10.48950195 21.00585938 C11.68442424 23.99231279 12.89300794 26.97295982 14.10351562 29.953125 C14.86540178 31.84342033 15.62649658 33.73403485 16.38671875 35.625 C16.74916183 36.51880371 17.11160492 37.41260742 17.48503113 38.33349609 C17.81570084 39.16445801 18.14637054 39.99541992 18.48706055 40.8515625 C18.78001511 41.58197754 19.07296967 42.31239258 19.37480164 43.06494141 C20 45 20 45 20 48 C14.37408796 47.35209454 9.46477618 45.43701025 4.2265625 43.40234375 C3.3028183 43.04862198 2.3790741 42.69490021 1.42733765 42.33045959 C-1.50883318 41.20474882 -4.44192429 40.0712475 -7.375 38.9375 C-9.37089527 38.17070714 -11.36698697 37.40442535 -13.36328125 36.63867188 C-18.24447831 34.76502855 -23.12317353 32.884988 -28 31 C-26.17911723 27.10331087 -23.67789304 24.23341188 -20.75 21.125 C-19.97221191 20.29029175 -19.97221191 20.29029175 -19.17871094 19.4387207 C-12.94744357 12.80022321 -6.48029192 6.39401584 0 0 Z " fill="#F96923" transform="translate(453,261)"/>
<path d="M0 0 C14.19 0 28.38 0 43 0 C43 3.3 43 6.6 43 10 C37.72 10 32.44 10 27 10 C27 25.18 27 40.36 27 56 C23.37 56 19.74 56 16 56 C16 40.82 16 25.64 16 10 C10.72 10 5.44 10 0 10 C0 6.7 0 3.4 0 0 Z " fill="#0D0D0D" transform="translate(361,236)"/>
<path d="M0 0 C19.50272313 -1.0181236 19.50272313 -1.0181236 27 5 C32.88264375 11.00596962 35.27897308 17.26593943 35.375 25.6875 C35.24718691 33.74824566 33.69763422 40.47808866 28.75 46.9375 C21.6697558 52.24768315 15.56613891 54.14413092 6.75 54.0625 C5.48671875 54.05347656 4.2234375 54.04445313 2.921875 54.03515625 C1.95765625 54.02355469 0.9934375 54.01195312 0 54 C0 51.03 0 48.06 0 45 C0.7734375 44.97421875 1.546875 44.9484375 2.34375 44.921875 C11.8467972 44.45822962 11.8467972 44.45822962 20 40 C24.03860342 34.31857485 23.6917332 26.64624736 23 20 C21.50027657 15.72578824 19.90361026 13.31776859 16 11 C12.68455701 9.89485234 9.79589889 9.67892369 6.3125 9.4375 C5.13300781 9.35371094 3.95351562 9.26992187 2.73828125 9.18359375 C1.83464844 9.12300781 0.93101562 9.06242188 0 9 C0 6.03 0 3.06 0 0 Z " fill="#096D3C" transform="translate(129,237)"/>
<path d="M0 0 C2.66404069 2.66404069 3.69803905 5.7638883 5.07421875 9.203125 C5.36230911 9.91853455 5.65039948 10.63394409 5.94721985 11.37103271 C6.5544066 12.88632369 7.15859416 14.40281938 7.76000977 15.92041016 C8.68067972 18.2328694 9.6221199 20.53614344 10.56445312 22.83984375 C11.15234774 24.31458418 11.73897774 25.78982949 12.32421875 27.265625 C12.60746506 27.9502179 12.89071136 28.63481079 13.18254089 29.34014893 C14.87001682 33.68546387 15.18374023 36.50521828 14 41 C13.77666992 41.9379541 13.55333984 42.8759082 13.32324219 43.84228516 C13.06704102 44.81472168 12.81083984 45.7871582 12.546875 46.7890625 C12.25965576 47.88645752 11.97243652 48.98385254 11.67651367 50.11450195 C11.37076416 51.27296631 11.06501465 52.43143066 10.75 53.625 C8.29928558 62.97785527 5.88602989 72.33669691 3.59863281 81.73095703 C2.79421913 84.99879925 1.94318085 88.16927782 0.87109375 91.36328125 C-0.02413642 94.07305868 -0.16661487 96.16754713 0 99 C-0.99 99.495 -0.99 99.495 -2 100 C-1.34 67 -0.68 34 0 0 Z " fill="#0A7E46" transform="translate(426,191)"/>
<path d="M0 0 C3.63 0 7.26 0 11 0 C11 18.48 11 36.96 11 56 C7.37 56 3.74 56 0 56 C0 37.52 0 19.04 0 0 Z " fill="#FF6A24" transform="translate(36,236)"/>
<path d="M0 0 C0.33 0 0.66 0 1 0 C1 5.28 1 10.56 1 16 C4.7185142 16 5.31804606 15.14087832 8 12.6875 C9.0209375 11.76517578 9.0209375 11.76517578 10.0625 10.82421875 C11.74026092 9.24455272 13.38336911 7.64189074 15 6 C15.66 6.33 16.32 6.66 17 7 C14.36 9.64 11.72 12.28 9 15 C9.66 15.66 10.32 16.32 11 17 C9.02 17.99 9.02 17.99 7 19 C12.28 19 17.56 19 23 19 C23 19.33 23 19.66 23 20 C6.66699511 22.34826258 -7.77127841 22.05996097 -24 19 C-24 18.67 -24 18.34 -24 18 C-18.72 18.33 -13.44 18.66 -8 19 C-8.66 18.34 -9.32 17.68 -10 17 C-8.68 17 -7.36 17 -6 17 C-9.63 13.37 -13.26 9.74 -17 6 C-16.67 5.34 -16.34 4.68 -16 4 C-12.04 7.96 -8.08 11.92 -4 16 C-3.34 15.67 -2.68 15.34 -2 15 C-1.52425562 12.45975996 -1.15992453 9.99948536 -0.875 7.4375 C-0.78863281 6.72658203 -0.70226562 6.01566406 -0.61328125 5.28320312 C-0.40065217 3.52310688 -0.19927303 1.76165836 0 0 Z " fill="#6260B7" transform="translate(91,213)"/>
<path d="M0 0 C4.56030824 3.80475422 8.85089392 7.74969621 13 12 C13.66 11.67 14.32 11.34 15 11 C15.33 11.99 15.66 12.98 16 14 C15.01 14.66 14.02 15.32 13 16 C13.33 16.66 13.66 17.32 14 18 C7.07 17.01 0.14 16.02 -7 15 C-7 14.67 -7 14.34 -7 14 C-1.72 14.33 3.56 14.66 9 15 C8.34 14.34 7.68 13.68 7 13 C8.32 13 9.64 13 11 13 C10.2059375 12.22914063 9.411875 11.45828125 8.59375 10.6640625 C7.56223959 9.65130683 6.53100373 8.63827148 5.5 7.625 C4.71302734 6.86316406 4.71302734 6.86316406 3.91015625 6.0859375 C2.56846819 4.76167396 1.28004185 3.38394135 0 2 C0 1.34 0 0.68 0 0 Z " fill="#7674C0" transform="translate(74,217)"/>
<path d="M0 0 C0.66 0.33 1.32 0.66 2 1 C-0.64 3.64 -3.28 6.28 -6 9 C-5.34 9.66 -4.68 10.32 -4 11 C-7.4019487 13.09350689 -10.05272412 13.17942163 -14 13 C-13.67 12.01 -13.34 11.02 -13 10 C-12.34 10 -11.68 10 -11 10 C-9.07691002 8.54561562 -9.07691002 8.54561562 -7.0625 6.6875 C-6.37285156 6.07261719 -5.68320313 5.45773438 -4.97265625 4.82421875 C-3.27290338 3.25236808 -1.62146436 1.65196212 0 0 Z " fill="#7F7DC4" transform="translate(106,219)"/>
</svg>
